<?xml version="1.0" standalone="no"?>
<!DOCTYPE svg PUBLIC "-//W3C//DTD SVG 20010904//EN"
 "http://www.w3.org/TR/2001/REC-SVG-20010904/DTD/svg10.dtd">
<svg version="1.0" xmlns="http://www.w3.org/2000/svg"
 width="1280.000000pt" height="1280.000000pt" viewBox="0 0 1280.000000 1280.000000"
 preserveAspectRatio="xMidYMid meet">
<metadata>
Created by potrace 1.15, written by Peter Selinger 2001-2017
</metadata>
<g transform="translate(0.000000,1280.000000) scale(0.100000,-0.100000)"
fill="#000000" stroke="none">
<path d="M5314 12668 c26 -495 151 -872 434 -1308 173 -267 323 -469 471 -632
83 -92 151 -170 151 -174 0 -12 -159 126 -288 251 -286 276 -514 557 -665 820
-54 94 -123 262 -133 323 -25 156 -33 -109 -9 -290 69 -521 389 -1017 920
-1424 22 -17 122 -84 223 -148 100 -65 182 -120 182 -122 0 -12 -169 69 -288
137 -392 225 -782 575 -984 883 -53 81 -58 86 -58 57 0 -60 22 -176 47 -244
35 -97 66 -146 232 -367 220 -294 472 -544 729 -724 62 -43 111 -81 108 -83
-9 -9 -169 61 -247 107 -114 69 -206 140 -390 301 -87 77 -161 139 -164 139
-3 0 -5 -24 -5 -54 0 -75 31 -168 88 -263 159 -265 351 -453 753 -738 142
-102 152 -110 123 -113 -76 -7 -191 59 -369 212 -104 90 -210 164 -220 154 -2
-2 9 -33 26 -68 95 -201 376 -458 631 -578 73 -34 77 -37 61 -54 -9 -10 -14
-19 -12 -21 2 -2 38 -20 81 -40 54 -26 91 -53 126 -91 92 -102 118 -193 109
-394 -8 -184 -52 -322 -128 -403 l-33 -34 -7 45 c-3 25 -12 137 -18 250 -19
325 -47 473 -109 571 -107 167 -287 239 -752 299 -325 42 -340 45 -681 145
-923 272 -1385 422 -1846 599 -185 70 -493 200 -574 241 -47 24 -49 25 -49 5
0 -28 44 -141 77 -197 43 -74 147 -177 236 -235 224 -143 1175 -555 1849 -799
142 -51 256 -94 255 -95 -5 -6 -686 105 -747 121 -501 129 -1109 353 -1522
561 -39 20 -73 33 -76 30 -9 -9 35 -125 70 -184 44 -74 134 -170 216 -231 241
-177 882 -456 1465 -636 250 -78 313 -94 392 -104 55 -7 57 -8 30 -16 -54 -15
-242 12 -650 94 -473 96 -512 106 -831 217 -135 47 -247 84 -250 81 -8 -8 43
-135 77 -193 52 -86 142 -178 233 -239 164 -108 293 -154 816 -286 285 -72
434 -105 535 -117 l140 -18 -125 -17 c-199 -27 -377 -39 -485 -32 -81 5 -371
44 -522 70 -48 8 -41 -8 22 -56 67 -51 182 -101 396 -173 346 -116 714 -186
978 -186 49 0 81 -4 75 -9 -29 -27 -374 -96 -539 -107 -52 -4 -95 -11 -95 -15
0 -4 17 -24 37 -44 77 -75 226 -126 426 -146 213 -21 540 16 735 85 41 15 42
15 32 -4 -30 -57 -222 -161 -375 -205 -49 -14 -94 -27 -100 -29 -19 -7 61 -35
121 -41 182 -21 454 81 851 318 220 132 306 152 414 97 35 -18 105 -88 96 -97
-3 -2 -26 1 -51 8 -26 6 -81 9 -124 7 -198 -12 -362 -179 -499 -508 -138 -332
-236 -835 -217 -1115 20 -305 139 -811 255 -1092 99 -237 157 -333 427 -712
110 -153 223 -318 251 -366 129 -217 231 -454 258 -598 13 -71 13 -86 -1 -148
-28 -123 -119 -293 -216 -402 -50 -56 -148 -127 -208 -150 -23 -10 -70 -17
-105 -17 -158 0 -275 127 -293 318 -7 76 13 176 46 222 40 56 116 63 175 16
l30 -24 -17 -50 c-23 -65 -23 -72 7 -72 40 0 59 39 45 91 -32 118 -165 144
-259 50 -56 -56 -75 -121 -68 -235 10 -165 71 -283 177 -339 50 -26 62 -28
130 -25 130 8 250 71 393 207 86 82 155 169 184 230 10 22 21 41 24 41 9 0 0
-104 -17 -199 -67 -374 -301 -708 -604 -861 -98 -49 -200 -80 -264 -80 -64 0
-116 24 -225 102 -93 66 -173 108 -208 108 -31 0 -75 -18 -100 -42 -19 -18
-23 -32 -23 -83 0 -111 55 -187 170 -232 70 -27 327 -24 435 5 416 115 768
570 866 1120 16 85 22 164 23 289 0 95 2 173 4 173 1 0 18 -25 37 -55 80 -124
123 -273 190 -653 51 -289 72 -383 116 -526 165 -533 470 -847 825 -847 94 0
167 18 237 58 35 20 75 89 60 104 -5 5 -51 0 -113 -12 -400 -79 -736 128 -925
568 -79 183 -133 410 -190 791 -38 258 -58 335 -140 527 -26 61 -49 117 -53
125 -3 8 32 -19 79 -61 171 -151 269 -212 414 -254 101 -29 224 -36 310 -16
206 48 413 256 514 516 64 163 76 235 75 430 -1 192 -16 270 -79 400 -133 278
-460 374 -652 192 -92 -86 -126 -189 -103 -303 40 -191 179 -310 288 -244 17
11 32 21 32 22 0 2 -17 3 -38 4 -61 1 -91 13 -137 55 -79 73 -106 201 -68 318
50 158 246 241 395 168 142 -70 279 -290 318 -514 17 -96 8 -277 -19 -368 -47
-158 -128 -292 -244 -401 -132 -126 -267 -186 -422 -187 -277 -3 -546 192
-730 527 l-38 68 94 -48 c88 -46 98 -49 169 -49 91 0 163 30 226 94 66 65 79
101 79 211 0 87 -3 100 -30 149 -31 57 -85 101 -123 101 -98 0 -170 -114 -125
-200 14 -28 25 -36 56 -41 34 -5 40 -3 48 18 6 16 4 37 -6 66 -9 23 -17 47
-18 52 -4 18 83 18 109 0 89 -58 84 -189 -11 -294 -48 -53 -90 -78 -153 -92
-121 -25 -278 64 -407 231 -100 130 -318 466 -373 576 -121 241 -157 399 -149
649 8 230 52 404 162 632 135 283 316 492 646 748 308 239 406 334 495 485 93
158 137 315 156 560 l12 155 64 50 c101 79 293 274 339 345 24 36 48 71 53 78
23 27 103 13 280 -49 96 -33 240 -83 320 -111 80 -27 235 -89 345 -138 l200
-89 -50 46 c-58 54 -250 181 -415 275 -201 115 -521 268 -559 268 -15 0 -19 9
-42 116 -26 120 -73 273 -104 334 -66 132 -235 214 -435 214 -163 -1 -240 -38
-405 -195 l-91 -87 4 98 c7 160 -14 196 -149 266 -114 59 -139 92 -147 194 -8
121 25 191 185 384 50 60 105 133 123 162 112 185 117 356 16 559 -86 172
-142 229 -881 900 -529 480 -653 608 -865 885 -108 143 -275 396 -362 550 -69
122 -274 542 -303 623 -11 28 -24 47 -33 47 -13 0 -14 -18 -8 -132z m3326
-4707 c26 -49 0 -111 -46 -111 -26 0 -54 34 -54 65 0 56 76 90 100 46z m-626
-1032 c37 -186 -60 -539 -187 -676 -47 -51 -77 -66 -113 -57 -20 5 -24 12 -24
46 0 47 8 64 68 137 68 83 162 306 217 514 10 37 21 67 25 67 4 0 10 -14 14
-31z m-473 -123 c-22 -128 -83 -194 -125 -134 -29 41 -27 48 73 203 l45 70 10
-34 c7 -23 6 -55 -3 -105z m214 24 c13 -96 -46 -269 -115 -339 -34 -33 -50
-37 -81 -21 -33 18 -21 58 60 197 44 75 88 158 97 184 20 55 29 50 39 -21z"/>
</g>
</svg>
